<mxfile host="app.diagrams.net" modified="2024-08-19T15:51:57.464Z" agent="Mozilla/5.0 (X11; Linux x86_64) AppleWebKit/537.36 (KHTML, like Gecko) Chrome/127.0.0.0 Safari/537.36" version="24.6.4" etag="M_BQRIl-FmDgtF0jPt_0" type="github">
  <diagram name="PÃ¡gina-1" id="sTvaP7Ac0eDVrtVaIR4S">
    <mxGraphModel>
      <root>
        <mxCell id="0" />
        <mxCell id="1" parent="0" />
      </root>
    </mxGraphModel>
  </diagram>
</mxfile>
